<svg width="38" height="39" viewBox="0 0 38 39" fill="none" xmlns="http://www.w3.org/2000/svg">
<g clip-path="url(#clip0_2308_25462)">
<path d="M28 21.9309V28.5851H24.1414V22.3787C24.1414 20.8176 23.5847 19.7546 22.1869 19.7546C21.1197 19.7546 20.4878 20.4703 20.2074 21.165C20.107 21.4119 20.0777 21.7593 20.0777 22.1066V28.5893H16.219C16.219 28.5893 16.2692 18.0722 16.219 16.9841H20.0777V18.6288C20.0693 18.6414 20.0609 18.654 20.0525 18.6665H20.0777V18.6288C20.5924 17.8379 21.5048 16.7121 23.5555 16.7121C26.0958 16.7079 28 18.3694 28 21.9309ZM12.1846 11.3887C10.8621 11.3887 10 12.255 10 13.3933C10 14.5066 10.837 15.398 12.1344 15.398H12.1595C13.5071 15.398 14.3441 14.5066 14.3441 13.3933C14.3148 12.255 13.5029 11.3887 12.1846 11.3887ZM10.2302 28.5893H14.0888V16.9799H10.2302V28.5893Z" fill="white"/>
</g>
<defs>
<clipPath id="clip0_2308_25462">
<rect width="18" height="18" fill="white" transform="translate(10 10.9863)"/>
</clipPath>
</defs>
</svg>
