<svg width="49" height="48" viewBox="0 0 49 48" fill="none" xmlns="http://www.w3.org/2000/svg">
<g id="251093_quote_begin_testimonial_quotation_icon 1" clip-path="url(#clip0_1_25499)">
<g id="Group">
<path id="Vector" d="M18.5 25.5H6.5V22.5C6.5 16.353 9.782 10.218 15.5 8.157V1.5C6.218 4.032 0.5 12.99 0.5 22.5V28.5V43.5C0.5 45.1575 1.8425 46.5 3.5 46.5H18.5C20.1575 46.5 21.5 45.1575 21.5 43.5V28.5C21.5 26.844 20.1575 25.5 18.5 25.5Z" fill="#3FC4A4"/>
<path id="Vector_2" d="M45.5 25.5H33.5V22.5C33.5 16.353 36.782 10.218 42.5 8.157V1.5C33.218 4.032 27.5 12.99 27.5 22.5V28.5V43.5C27.5 45.1575 28.8425 46.5 30.5 46.5H45.5C47.1575 46.5 48.5 45.1575 48.5 43.5V28.5C48.5 26.844 47.1575 25.5 45.5 25.5Z" fill="#3FC4A4"/>
</g>
</g>
<defs>
<clipPath id="clip0_1_25499">
<rect width="48" height="48" fill="white" transform="translate(0.5)"/>
</clipPath>
</defs>
</svg>
