<svg width="38" height="39" viewBox="0 0 38 39" fill="none" xmlns="http://www.w3.org/2000/svg">
<path d="M27.6239 15.6531C27.417 14.8786 26.8071 14.2687 26.0326 14.0617C24.6287 13.6855 19 13.6855 19 13.6855C19 13.6855 13.3712 13.6855 11.9674 14.0617C11.193 14.2687 10.583 14.8786 10.3761 15.6531C10 17.0568 10 19.9857 10 19.9857C10 19.9857 10 22.9144 10.3761 24.318C10.583 25.0925 11.193 25.7025 11.9674 25.9095C13.3712 26.2855 19 26.2855 19 26.2855C19 26.2855 24.6287 26.2855 26.0326 25.9095C26.8071 25.7025 27.417 25.0925 27.6239 24.318C28 22.9144 28 19.9857 28 19.9857C28 19.9857 28 17.0568 27.6239 15.6531ZM17.1999 22.6857V17.2856L21.8763 19.9857L17.1999 22.6857Z" fill="white"/>
</svg>
