<svg width="80" height="80" viewBox="0 0 80 80" fill="none" xmlns="http://www.w3.org/2000/svg">
<path d="M20.5 44.125V52.625" stroke="#EBEAEA" stroke-width="11.6594" stroke-miterlimit="10" stroke-linecap="round"/>
<path d="M20.5 50.625V59.125" stroke="#EBEAEA" stroke-width="11.6594" stroke-miterlimit="10" stroke-linecap="square"/>
<path d="M40.8745 32.3749C39.8745 33.8749 38.6245 35.3749 37.3745 36.7499C36.1245 38.1249 34.4995 39.3749 32.9995 40.4999C31.2495 41.4999 29.4995 42.6249 27.4995 43.2499C25.4995 43.8749 23.4995 44.2499 21.3745 44.2499C19.2495 44.2499 17.7495 42.4999 17.8745 40.4999C17.8745 38.4999 19.3745 37.1249 21.2495 36.9999H21.4995C22.8745 36.8749 24.4995 36.8749 25.8745 36.7499C27.3745 36.6249 28.8745 36.2499 30.3745 35.7499C31.7495 35.2499 33.3745 34.4999 34.7495 33.6249C36.1245 32.7499 37.6245 31.7499 38.9995 30.6249C39.6245 30.1249 40.3745 30.2499 40.9995 30.8749C41.2495 31.2499 41.2495 31.8749 40.8745 32.3749Z" fill="#EBEAEA"/>
<path d="M7.49944 58.625C7.74944 56.625 8.12444 54.875 8.49944 53C8.87444 51.125 9.37444 49.375 9.99944 47.375C10.6244 45.5 11.3744 43.75 12.4994 41.75C12.9994 40.875 13.7494 39.75 14.7494 38.875C14.9994 38.625 15.2494 38.5 15.6244 38.25C15.8744 38 16.2494 37.875 16.6244 37.625C17.3744 37.25 18.4994 37 19.4994 37C21.6244 37 23.1244 38.75 23.1244 40.625C23.1244 42.75 21.3744 44.25 19.4994 44.25C19.7494 44.25 19.7494 44.125 19.2494 44.375C18.8744 44.625 18.3744 45 17.8744 45.5C16.8744 46.5 15.7494 48 14.8744 49.375C13.9994 50.75 12.9994 52.375 12.2494 54.125C11.4994 55.75 10.4994 57.375 9.87444 59C9.62444 59.625 8.87444 60 7.99944 59.625C7.74944 59.875 7.37444 59.375 7.49944 58.625Z" fill="#EBEAEA"/>
<path d="M59.5 44.125V52.625" stroke="#65D0B6" stroke-width="11.6594" stroke-miterlimit="10" stroke-linecap="round"/>
<path d="M59.5 50.625V59.125" stroke="#65D0B6" stroke-width="11.6594" stroke-miterlimit="10" stroke-linecap="square"/>
<path d="M40.8751 30.6254C42.2501 31.6254 43.7501 32.7504 45.1251 33.6254C46.5001 34.5004 48.0001 35.2504 49.3751 35.8754C50.7501 36.3754 52.3751 36.7504 53.7501 36.8754C55.2501 37.0004 56.7501 37.0004 58.2501 37.1254H58.3751C60.3751 37.2504 61.8751 39.0004 61.7501 41.0004C61.6251 43.0004 60.0001 44.3754 58.2501 44.3754C54.2501 44.5004 50.0001 42.8754 46.6251 40.7504C44.8751 39.6254 43.5001 38.2504 42.2501 36.8754C41.0001 35.5004 39.7501 34.0004 38.7501 32.5004C38.3751 31.8754 38.3751 31.0004 39.0001 30.5004C39.8751 30.2504 40.5001 30.2504 40.8751 30.6254Z" fill="#65D0B6"/>
<path d="M70.0001 59.5C69.3751 57.75 68.5001 56.25 67.6251 54.625C66.8751 53 65.8751 51.5 65.0001 49.875C64.1251 48.375 63.0001 47 62.0001 46C61.5001 45.5 61.0001 45 60.6251 44.875C60.2501 44.625 60.1251 44.75 60.3751 44.75C58.2501 44.75 56.7501 43 56.7501 41.125C56.7501 39 58.5001 37.5 60.3751 37.5C61.3751 37.5 62.5001 37.75 63.2501 38.125C63.6251 38.25 64.0001 38.5 64.2501 38.75C64.6251 39 64.8751 39.125 65.1251 39.375C66.1251 40.25 66.8751 41.375 67.3751 42.25C68.5001 44.25 69.2501 46 69.8751 47.875C70.5001 49.75 71.0001 51.5 71.3751 53.5C71.7501 55.375 72.1251 57.125 72.3751 59.125C72.5001 59.875 72.0001 60.625 71.2501 60.75C70.7501 60.375 70.2501 60 70.0001 59.5Z" fill="#65D0B6"/>
<path d="M60 33.75C63.4518 33.75 66.25 30.9518 66.25 27.5C66.25 24.0482 63.4518 21.25 60 21.25C56.5482 21.25 53.75 24.0482 53.75 27.5C53.75 30.9518 56.5482 33.75 60 33.75Z" fill="#65D0B6"/>
<path d="M20 33.75C23.4518 33.75 26.25 30.9518 26.25 27.5C26.25 24.0482 23.4518 21.25 20 21.25C16.5482 21.25 13.75 24.0482 13.75 27.5C13.75 30.9518 16.5482 33.75 20 33.75Z" fill="#EBEAEA"/>
<path d="M36.375 25.375L32.875 18.25L37.125 16.75L38.625 24.625L36.375 25.375Z" fill="#39B295"/>
<path d="M40.625 24.125L41 16.5L45.25 17.25L43.125 24.625L40.625 24.125Z" fill="#39B295"/>
</svg>
