<svg width="80" height="80" viewBox="0 0 80 80" fill="none" xmlns="http://www.w3.org/2000/svg">
<path d="M30 53.75C43.1168 53.75 53.75 43.1168 53.75 30C53.75 16.8832 43.1168 6.25 30 6.25C16.8832 6.25 6.25 16.8832 6.25 30C6.25 43.1168 16.8832 53.75 30 53.75Z" fill="#65D0B6"/>
<path d="M50 73.75C63.1168 73.75 73.75 63.1168 73.75 50C73.75 36.8832 63.1168 26.25 50 26.25C36.8832 26.25 26.25 36.8832 26.25 50C26.25 63.1168 36.8832 73.75 50 73.75Z" fill="#EBEAEA"/>
<path d="M26.25 50C26.25 51.125 26.375 52.375 26.5 53.5C27.625 53.625 28.75 53.75 30 53.75C43.125 53.75 53.75 43.125 53.75 30C53.75 28.875 53.625 27.625 53.5 26.5C52.375 26.375 51.125 26.25 50 26.25C36.875 26.25 26.25 36.875 26.25 50Z" fill="white"/>
</svg>
