<svg width="80" height="80" viewBox="0 0 80 80" fill="none" xmlns="http://www.w3.org/2000/svg">
<path d="M68.75 35H44.75C43.625 35 42.5 35.5 41.75 36.25L32 46C30.375 47.625 30.375 50.25 32 52L43.375 63.375C45 65 47.5 65 49.125 63.375L59.125 51.375H68.75V35Z" fill="#65D0B6"/>
<path d="M55.625 53.625L38.125 36.25C37.375 35.5 36.25 35 35.125 35H11.25V51.25H20.875L38.5 70.875C40.125 72.5 42.625 72.5 44.25 70.875L55.625 59.5C57.25 58 57.25 55.25 55.625 53.625Z" fill="#EBEAEA"/>
<path d="M31.5 49.875L29 47.375L40.25 36.125C41 35.375 42.125 34.875 43.25 34.875H57.5V43.625H45.125L39 49.75C36.875 52 33.625 52 31.5 49.875Z" fill="#65D0B6"/>
<path d="M28.375 52.625C27.125 51.375 25.125 51.375 23.875 52.625L23.125 53.375C21.5 55 21.5 57.625 23.125 59.375L24.625 60.875L28.375 57.125C29.625 55.875 29.625 53.875 28.375 52.625Z" fill="#65D0B6"/>
<path d="M32.875 57.125C31.625 55.875 29.625 55.875 28.375 57.125L24.625 60.875L29.125 65.375L32.875 61.625C34.125 60.375 34.125 58.375 32.875 57.125Z" fill="#65D0B6"/>
<path d="M37.375 61.625C36.125 60.375 34.125 60.375 32.875 61.625L29.125 65.375L33.625 69.875L37.375 66.125C38.625 64.875 38.625 62.875 37.375 61.625Z" fill="#65D0B6"/>
<path d="M41.875 66C40.625 64.75 38.625 64.75 37.375 66L33.625 69.75L35.125 71.25C36.75 72.875 39.375 72.875 41.125 71.25L41.875 70.5C43 69.25 43 67.25 41.875 66Z" fill="#65D0B6"/>
<path d="M40 31.25C46.2132 31.25 51.25 26.2132 51.25 20C51.25 13.7868 46.2132 8.75 40 8.75C33.7868 8.75 28.75 13.7868 28.75 20C28.75 26.2132 33.7868 31.25 40 31.25Z" fill="#39B295"/>
<path d="M35.625 20.125L38.75 23.375L44.375 17.75" stroke="white" stroke-width="2" stroke-miterlimit="10" stroke-linecap="square"/>
</svg>
