<svg width="284" height="60" viewBox="0 0 284 60" fill="none" xmlns="http://www.w3.org/2000/svg">
<g clip-path="url(#clip0_3053_32402)">
<path d="M178.291 5.25434C177.683 4.37013 176.444 3.83329 175.098 3.81355C173.365 3.81355 172.109 4.53197 172.109 5.7675C172.109 7.02276 173.55 7.37408 175.248 7.61487C177.904 7.98592 180.434 8.72013 180.434 11.6175C180.415 14.5149 177.778 15.6043 175.082 15.6043C172.611 15.6043 170.708 14.8464 169.528 12.6714L171.079 11.6372C172.003 13.2043 173.605 13.7609 175.102 13.7609C176.653 13.7609 178.366 13.2438 178.366 11.6214C178.366 10.2201 176.87 9.73855 175.062 9.49776C172.496 9.14644 170.061 8.49907 170.061 5.73197C170.041 3.05565 172.717 2.02539 175.042 2.02539C176.905 2.02539 178.769 2.4675 179.858 4.20434L178.291 5.25434Z" fill="white"/>
<path d="M184.99 6.21289V11.0839C184.99 12.6353 185.874 13.705 187.461 13.705C188.957 13.705 189.987 12.4695 189.987 10.9576V6.21289H191.89V15.3274H190.172L190.062 13.9813C189.178 14.9958 188.199 15.4576 186.924 15.4576C184.69 15.4576 183.087 13.851 183.087 11.1037V6.21289H184.99Z" fill="white"/>
<path d="M201.209 8.44371C200.491 7.78055 199.713 7.59502 198.809 7.59502C197.649 7.57529 196.871 7.96608 196.871 8.6845C196.891 9.44239 197.684 9.73845 198.845 9.84897C200.522 9.99502 202.721 10.3661 202.701 12.7069C202.682 14.4042 201.189 15.5845 198.825 15.5845C197.349 15.5845 195.872 15.2529 194.672 13.9069L195.667 12.5608C196.516 13.5003 197.791 13.8911 198.861 13.9069C199.764 13.9069 200.779 13.5753 200.799 12.7266C200.818 11.9134 200.041 11.6016 198.695 11.4713C196.978 11.3056 195.004 10.7529 194.984 8.73976C194.984 6.73055 197.068 5.97266 198.766 5.97266C200.167 5.97266 201.257 6.2845 202.271 7.18845L201.209 8.44371Z" fill="white"/>
<path d="M208.461 3.5918V6.22864H211.117V7.87075H208.441V12.2089C208.441 13.1681 208.867 13.701 209.751 13.701C210.119 13.701 210.545 13.5707 210.912 13.3892L211.465 15.0115C210.837 15.2878 210.284 15.4181 209.637 15.4181C207.663 15.4734 206.538 14.3484 206.538 12.2089V7.87469H204.786V6.23259H206.538V3.79706L208.461 3.5918Z" fill="white"/>
<path d="M221.27 6.21303H223.113C223.113 9.24066 223.113 12.2841 223.113 15.3078H221.305L221.215 13.8315C220.607 14.992 219.205 15.5486 218.076 15.5486C215.42 15.5683 213.407 13.8512 213.407 10.7525C213.407 7.70909 215.491 6.01172 218.112 6.01172C219.403 6.01172 220.638 6.61961 221.211 7.65382L221.27 6.21303ZM215.309 10.7525C215.309 12.6354 216.64 13.7801 218.262 13.7801C222.194 13.7801 222.194 7.74856 218.262 7.74856C216.636 7.74461 215.309 8.88935 215.309 10.7525Z" fill="white"/>
<path d="M228.762 3.53653C228.762 5.10364 226.401 5.10364 226.401 3.53653C226.397 1.98522 228.762 1.98522 228.762 3.53653ZM226.618 6.17732V15.3115H228.517V6.17732H226.618Z" fill="white"/>
<path d="M238.926 15.3092V10.4381C238.926 8.87103 238.042 7.81709 236.471 7.81709C234.959 7.81709 233.925 9.05261 233.925 10.5487V15.3092H232.026V6.19472H233.759L233.87 7.52103C234.738 6.54209 235.753 6.06445 236.933 6.06445C239.147 6.06445 240.845 7.63156 240.845 10.4184V15.3092H238.926Z" fill="white"/>
<path d="M251.515 6.21303H253.358C253.358 9.24066 253.358 12.2841 253.358 15.3078H251.55L251.459 13.8315C250.851 14.992 249.45 15.5486 248.321 15.5486C245.665 15.5683 243.651 13.8512 243.651 10.7525C243.651 7.70909 245.736 6.01172 248.357 6.01172C249.647 6.01172 250.883 6.61961 251.455 7.65382L251.515 6.21303ZM245.554 10.7525C245.554 12.6354 246.884 13.7801 248.507 13.7801C252.438 13.7801 252.438 7.74856 248.507 7.74856C246.88 7.74461 245.554 8.88935 245.554 10.7525Z" fill="white"/>
<path d="M258.766 2.41211V7.63448C259.358 6.56474 260.85 6.01211 261.959 6.01211C264.58 6.01211 266.574 7.65421 266.574 10.7529C266.574 13.7608 264.561 15.4937 261.924 15.4937C260.704 15.4937 259.488 15.0318 258.77 13.8713L258.659 15.3121H256.871V2.41211H258.766ZM258.876 10.7529C258.876 12.5411 260.187 13.7253 261.793 13.7253C263.38 13.7253 264.671 12.5805 264.671 10.7529C264.671 8.88974 263.38 7.80027 261.793 7.80027C260.207 7.80027 258.876 9.00027 258.876 10.7529Z" fill="white"/>
<path d="M271.5 2.41211V15.3082H269.602V2.41211H271.5Z" fill="white"/>
<path d="M276.502 11.4713C276.667 12.8529 277.812 13.7608 279.474 13.7608C280.398 13.7608 281.558 13.4095 282.111 12.7819L283.346 13.9819C282.407 15.0161 280.836 15.5292 279.434 15.5292C276.446 15.5292 274.528 13.6306 274.528 10.7134C274.528 7.94634 276.466 5.97266 279.308 5.97266C282.241 5.97266 284.234 7.76081 283.883 11.4713H276.502ZM282.055 9.86476C281.945 8.42397 280.895 7.67003 279.363 7.67003C277.978 7.67003 276.837 8.42792 276.541 9.86476H282.055Z" fill="white"/>
<path d="M179.526 34.7411H172.532L171.312 37.4529H169.117L174.912 24.5371H177.162L182.957 37.4529H180.762L179.526 34.7411ZM176.037 26.7161L173.305 32.8621H178.769L176.037 26.7161Z" fill="white"/>
<path d="M192.794 27.4902L194.179 28.56L193.09 29.835C193.848 30.7192 194.199 31.5323 194.199 32.6573C194.199 34.2639 193.406 35.5744 191.783 36.1981C193.646 36.8258 194.183 38.081 194.183 39.1705C194.183 41.6415 191.748 42.881 189.312 42.881C186.34 42.881 184.441 41.3692 184.516 38.8389H186.419C186.363 40.26 187.804 41.0179 189.316 41.0337C190.717 41.0337 192.213 40.4613 192.213 39.1705C192.213 37.8994 191.053 37.1968 189.356 37.1968C186.403 37.1968 184.429 35.4994 184.429 32.6573C184.429 29.6139 186.884 28.0823 189.356 28.0823C190.113 28.0823 191.163 28.2679 191.811 28.71L192.794 27.4902ZM186.336 32.6573C186.336 34.4652 187.702 35.4442 189.344 35.4442C191.021 35.4442 192.296 34.2994 192.296 32.6573C192.296 30.8692 190.911 29.8547 189.344 29.8547C187.792 29.8547 186.336 30.7587 186.336 32.6573Z" fill="white"/>
<path d="M198.995 28.3576L199.125 29.5576C199.788 28.397 200.823 28.1562 201.802 28.1562C202.686 28.1562 203.534 28.4681 204.052 28.9299L203.183 30.5918C202.721 30.2247 202.279 30.0391 201.577 30.0391C200.266 30.0391 199.121 30.8523 199.121 32.5299V37.4562H197.223V28.3615H198.995V28.3576Z" fill="white"/>
<path d="M208.405 25.682C208.405 27.2491 206.045 27.2491 206.045 25.682C206.045 24.1346 208.405 24.1346 208.405 25.682ZM206.266 28.3228V37.457H208.165V28.3228H206.266Z" fill="white"/>
<path d="M219.367 36.2722C218.353 37.2709 217.228 37.6933 215.917 37.6933C213.296 37.6933 211.121 36.0512 211.121 32.913C211.121 29.7749 213.28 28.1367 215.917 28.1367C217.172 28.1367 218.222 28.5236 219.201 29.4828L217.986 30.7578C217.413 30.2051 216.655 29.9446 215.937 29.9446C214.295 29.9446 213.02 31.1051 213.02 32.917C213.02 34.8354 214.35 35.8499 215.917 35.8499C216.691 35.8499 217.484 35.6091 218.076 35.0012L219.367 36.2722Z" fill="white"/>
<path d="M223.741 28.3574V33.2285C223.741 34.7798 224.625 35.8495 226.212 35.8495C227.708 35.8495 228.738 34.614 228.738 33.1022V28.3614H230.641V37.4758H228.924L228.813 36.1298C227.929 37.1443 226.95 37.6061 225.675 37.6061C223.441 37.6061 221.838 35.9995 221.838 33.2522V28.3614H223.741V28.3574Z" fill="white"/>
<path d="M236.124 24.5566V37.4527H234.225V24.5566H236.124Z" fill="white"/>
<path d="M242.637 25.7363V28.3732H245.293V30.0153H242.617V34.3534C242.617 35.3126 243.043 35.8455 243.928 35.8455C244.295 35.8455 244.721 35.7153 245.088 35.5337L245.641 37.1561C245.013 37.4324 244.461 37.5626 243.813 37.5626C241.84 37.6179 240.715 36.4929 240.715 34.3534V30.0153H238.962V28.3732H240.715V25.9376L242.637 25.7363Z" fill="white"/>
<path d="M249.888 28.3574V33.2285C249.888 34.7798 250.772 35.8495 252.359 35.8495C253.855 35.8495 254.885 34.614 254.885 33.1022V28.3614H256.784V37.4758H255.067L254.956 36.1298C254.072 37.1443 253.093 37.6061 251.818 37.6061C249.584 37.6061 247.981 35.9995 247.981 33.2522V28.3614H249.888V28.3574Z" fill="white"/>
<path d="M262.07 28.3576L262.2 29.5576C262.863 28.397 263.897 28.1562 264.876 28.1562C265.761 28.1562 266.609 28.4681 267.126 28.9299L266.258 30.5918C265.796 30.2247 265.354 30.0391 264.651 30.0391C263.341 30.0391 262.196 30.8523 262.196 32.5299V37.4562H260.297V28.3615H262.07V28.3576Z" fill="white"/>
<path d="M270.505 33.6159C270.671 35.0014 271.816 35.9053 273.474 35.9053C274.398 35.9053 275.558 35.554 276.115 34.9264L277.35 36.1264C276.411 37.1606 274.84 37.6738 273.438 37.6738C270.45 37.6738 268.532 35.7751 268.532 32.858C268.532 30.0909 270.47 28.1172 273.312 28.1172C276.245 28.1172 278.238 29.9053 277.887 33.6159H270.505ZM276.055 32.0093C275.945 30.5685 274.895 29.8146 273.363 29.8146C271.978 29.8146 270.837 30.5725 270.541 32.0093H276.055Z" fill="white"/>
<path d="M170.578 59.5972V46.7012H179.712V48.7104H172.646V52.642H179.364V54.5604H172.646V59.5972H170.578Z" fill="white"/>
<path d="M191.297 55.0591C191.297 57.7513 189.434 59.7841 186.572 59.7841C183.73 59.7841 181.887 57.7552 181.887 55.0591C181.887 52.3828 183.75 50.3184 186.572 50.3184C189.379 50.3184 191.297 52.3828 191.297 55.0591ZM183.789 55.0591C183.789 56.6815 184.839 58.0118 186.576 58.0118C188.329 58.0118 189.383 56.6855 189.383 55.0591C189.383 53.4526 188.238 52.071 186.576 52.071C184.839 52.071 183.789 53.4565 183.789 55.0591Z" fill="white"/>
<path d="M195.987 50.5039V55.375C195.987 56.9263 196.871 57.996 198.458 57.996C199.954 57.996 200.984 56.7605 200.984 55.2486V50.5079H202.887V59.6223H201.17L201.059 58.2763C200.175 59.2907 199.196 59.7526 197.921 59.7526C195.687 59.7526 194.084 58.146 194.084 55.3986V50.5079H195.987V50.5039Z" fill="white"/>
<path d="M213.296 59.5983V54.7272C213.296 53.1601 212.412 52.1061 210.841 52.1061C209.329 52.1061 208.295 53.3417 208.295 54.8377V59.5983H206.396V50.4838H208.129L208.239 51.8101C209.108 50.8311 210.122 50.3535 211.303 50.3535C213.517 50.3535 215.214 51.9206 215.214 54.7075V59.5983H213.296Z" fill="white"/>
<path d="M227.728 46.7012V59.5973H225.939L225.829 58.1565C225.11 59.317 223.891 59.7788 222.675 59.7788C220.034 59.7788 218.025 58.0459 218.025 55.038C218.025 51.9394 219.999 50.2973 222.639 50.2973C223.745 50.2973 225.241 50.8499 225.833 51.9196V46.6973H227.728V46.7012ZM219.92 55.042C219.92 56.8696 221.195 58.0144 222.797 58.0144C224.384 58.0144 225.695 56.8341 225.695 55.042C225.695 53.2894 224.384 52.0894 222.797 52.0894C221.195 52.0894 219.92 53.1788 219.92 55.042Z" fill="white"/>
<path d="M238.539 50.5021H240.383C240.383 53.5297 240.383 56.5732 240.383 59.5968H238.575L238.484 58.1205C237.876 59.2811 236.475 59.8376 235.346 59.8376C232.689 59.8574 230.676 58.1403 230.676 55.0416C230.676 51.9982 232.76 50.3008 235.382 50.3008C236.672 50.3008 237.908 50.9087 238.48 51.9429L238.539 50.5021ZM232.579 55.0416C232.579 56.9245 233.909 58.0692 235.532 58.0692C239.463 58.0692 239.463 52.0376 235.532 52.0376C233.909 52.0337 232.579 53.1784 232.579 55.0416Z" fill="white"/>
<path d="M246.825 47.8828V50.5197H249.482V52.1618H246.805V56.496C246.805 57.4552 247.231 57.992 248.116 57.992C248.483 57.992 248.909 57.8618 249.276 57.6802L249.829 59.3025C249.201 59.5789 248.649 59.7091 248.001 59.7091C246.028 59.7644 244.903 58.6394 244.903 56.496V52.1618H243.15V50.5197H244.903V48.0841L246.825 47.8828Z" fill="white"/>
<path d="M254.467 47.8275C254.467 49.3947 252.106 49.3947 252.106 47.8275C252.106 46.2762 254.467 46.2762 254.467 47.8275ZM252.327 50.4644V59.5986H254.226V50.4644H252.327Z" fill="white"/>
<path d="M266.57 55.0591C266.57 57.7513 264.707 59.7841 261.845 59.7841C259.003 59.7841 257.159 57.7552 257.159 55.0591C257.159 52.3828 259.022 50.3184 261.845 50.3184C264.651 50.3184 266.57 52.3828 266.57 55.0591ZM259.062 55.0591C259.062 56.6815 260.112 58.0118 261.849 58.0118C263.601 58.0118 264.655 56.6855 264.655 55.0591C264.655 53.4526 263.51 52.071 261.849 52.071C260.112 52.071 259.062 53.4565 259.062 55.0591Z" fill="white"/>
<path d="M276.407 59.5983V54.7272C276.407 53.1601 275.523 52.1061 273.952 52.1061C272.44 52.1061 271.406 53.3417 271.406 54.8377V59.5983H269.507V50.4838H271.24L271.35 51.8101C272.219 50.8311 273.233 50.3535 274.413 50.3535C276.628 50.3535 278.325 51.9206 278.325 54.7075V59.5983H276.407Z" fill="white"/>
<path d="M2.60513 39.0586H1.23145V54.556C1.23145 54.556 6.96302 58.9967 20.763 59.4783V58.0257C8.4196 56.4941 4.3025 43.6612 2.60513 39.0586Z" fill="#46D39A"/>
<path d="M31.0973 28.4048L18.6671 20.1705C9.3039 14.0363 10.8394 4.59422 17.4552 2.73501V1.36133C6.80522 2.09159 3.33548 7.42054 3.33548 7.42054C-3.36321 16.2192 0.915742 24.2876 12.375 31.4719L24.8052 39.2995C33.6039 45.7574 32.3921 56.0876 25.8552 58.1048V59.4784C36.8328 58.6732 40.1407 52.9416 40.1407 52.9416C46.1921 44.1429 41.7513 35.4271 31.0973 28.4048Z" fill="#46D39A"/>
<path d="M39.4106 18.7179H40.7842V5.15866C40.7842 5.15866 34.65 1.76787 22.5435 1.36523V2.81787C33.6 4.19155 37.9579 14.7666 39.4106 18.7179Z" fill="#46D39A"/>
<path d="M127.374 47.7755V2.01367H110.988V3.38736C114.541 3.38736 115.67 8.14788 115.67 13.1531V47.7795C115.67 53.2663 114.458 57.4663 110.988 57.4663V58.84H134.313V57.4663C130.847 57.4624 127.374 56.8979 127.374 47.7755Z" fill="#46D39A"/>
<path d="M132.379 29.2928V30.9862C136.01 31.3889 143.033 32.9244 144.083 39.2204H145.457V21.0586H144.083C143.033 27.4375 136.01 28.8902 132.379 29.2928Z" fill="#46D39A"/>
<path d="M132.379 2.01367V3.4663C138.028 3.70709 152.637 5.5663 154.899 17.3492H156.272V2.01367H132.379Z" fill="#46D39A"/>
<path d="M96.7854 51.5721L75.1025 0.0273438L69.6393 13.0102C68.7196 15.201 68.7156 17.6681 69.6275 19.8589L75.9117 34.9931H69.7498C64.2788 34.9931 59.3406 38.2655 57.2012 43.2984L54.9235 48.6787L50.1709 59.8339H51.9591L54.7617 53.2971C55.3933 51.7971 56.4472 50.5102 57.7893 49.5984L73.1288 39.1379L73.4525 39.5879L59.0051 50.5655C57.7183 51.5405 56.7196 52.8313 56.0998 54.3116H62.1472C67.6183 54.3116 72.5564 51.0392 74.6959 46.0063L79.3656 34.9931L78.6472 40.0063C78.5367 40.7642 78.6354 41.5418 78.9314 42.2484L83.3485 52.8787C84.8446 56.4826 88.3577 58.8234 92.2498 58.8234H103.697V57.4497C101.558 57.3037 99.5841 58.03 96.7854 51.5721Z" fill="#46D39A"/>
</g>
<defs>
<clipPath id="clip0_3053_32402">
<rect width="283.816" height="60" fill="white"/>
</clipPath>
</defs>
</svg>
