<svg width="202" height="43" viewBox="0 0 202 43" fill="none" xmlns="http://www.w3.org/2000/svg">
<g clip-path="url(#clip0_2308_25414)">
<path d="M126.895 4.02275C126.462 3.39343 125.58 3.01134 124.622 2.9973C123.389 2.9973 122.495 3.50862 122.495 4.38798C122.495 5.28138 123.521 5.53142 124.729 5.7028C126.62 5.96689 128.42 6.48945 128.42 8.55159C128.406 10.6137 126.53 11.3891 124.611 11.3891C122.852 11.3891 121.498 10.8497 120.658 9.30172L121.762 8.56564C122.419 9.68099 123.56 10.0771 124.625 10.0771C125.729 10.0771 126.948 9.70909 126.948 8.5544C126.948 7.55704 125.884 7.21429 124.597 7.04291C122.771 6.79287 121.037 6.33212 121.037 4.36269C121.023 2.45788 122.928 1.72461 124.583 1.72461C125.909 1.72461 127.235 2.03927 128.01 3.27543L126.895 4.02275Z" fill="white"/>
<path d="M131.663 4.70508V8.17195C131.663 9.27607 132.292 10.0374 133.421 10.0374C134.486 10.0374 135.22 9.15807 135.22 8.08205V4.70508H136.574V11.1921H135.352L135.273 10.2341C134.644 10.9561 133.947 11.2848 133.039 11.2848C131.449 11.2848 130.309 10.1414 130.309 8.186V4.70508H131.663Z" fill="white"/>
<path d="M143.207 6.29192C142.696 5.81994 142.142 5.68789 141.499 5.68789C140.673 5.67384 140.12 5.95198 140.12 6.4633C140.134 7.00272 140.698 7.21343 141.524 7.29209C142.718 7.39604 144.283 7.66013 144.269 9.32614C144.255 10.5342 143.193 11.3742 141.51 11.3742C140.46 11.3742 139.409 11.1382 138.555 10.1802L139.263 9.22219C139.867 9.89084 140.774 10.169 141.536 10.1802C142.179 10.1802 142.901 9.94422 142.915 9.34019C142.929 8.76144 142.376 8.53949 141.418 8.44678C140.195 8.32878 138.791 7.93546 138.777 6.50263C138.777 5.07262 140.26 4.5332 141.468 4.5332C142.465 4.5332 143.241 4.75515 143.963 5.39852L143.207 6.29192Z" fill="white"/>
<path d="M148.368 2.83984V4.71656H150.258V5.8853H148.354V8.97289C148.354 9.65559 148.657 10.0349 149.286 10.0349C149.548 10.0349 149.851 9.94215 150.112 9.81292L150.506 10.9676C150.059 11.1643 149.666 11.257 149.205 11.257C147.8 11.2963 146.999 10.4956 146.999 8.97289V5.8881H145.752V4.71937H146.999V2.98594L148.368 2.83984Z" fill="white"/>
<path d="M157.484 4.70578H158.796C158.796 6.86063 158.796 9.02673 158.796 11.1788H157.509L157.445 10.128C157.012 10.954 156.015 11.3501 155.211 11.3501C153.321 11.3642 151.888 10.1421 151.888 7.93666C151.888 5.77057 153.371 4.5625 155.237 4.5625C156.155 4.5625 157.035 4.99516 157.442 5.73123L157.484 4.70578ZM153.242 7.93666C153.242 9.27677 154.189 10.0915 155.343 10.0915C158.142 10.0915 158.142 5.79866 155.343 5.79866C154.186 5.79585 153.242 6.61059 153.242 7.93666Z" fill="white"/>
<path d="M162.817 2.80074C162.817 3.9161 161.137 3.9161 161.137 2.80074C161.134 1.69663 162.817 1.69663 162.817 2.80074ZM161.291 4.68027V11.1814H162.643V4.68027H161.291Z" fill="white"/>
<path d="M170.051 11.1794V7.71249C170.051 6.59713 169.422 5.84701 168.304 5.84701C167.228 5.84701 166.492 6.72637 166.492 7.79115V11.1794H165.14V4.69232H166.374L166.452 5.6363C167.07 4.93955 167.793 4.59961 168.633 4.59961C170.209 4.59961 171.417 5.71496 171.417 7.69844V11.1794H170.051Z" fill="white"/>
<path d="M179.01 4.70578H180.323C180.323 6.86063 180.323 9.02673 180.323 11.1788H179.036L178.971 10.128C178.539 10.954 177.541 11.3501 176.738 11.3501C174.847 11.3642 173.414 10.1421 173.414 7.93666C173.414 5.77057 174.897 4.5625 176.763 4.5625C177.682 4.5625 178.561 4.99516 178.968 5.73123L179.01 4.70578ZM174.768 7.93666C174.768 9.27677 175.715 10.0915 176.87 10.0915C179.668 10.0915 179.668 5.79866 176.87 5.79866C175.712 5.79585 174.768 6.61059 174.768 7.93666Z" fill="white"/>
<path d="M184.172 2V5.71691C184.593 4.95555 185.655 4.56223 186.444 4.56223C188.31 4.56223 189.729 5.73096 189.729 7.93638C189.729 10.0772 188.296 11.3105 186.419 11.3105C185.551 11.3105 184.686 10.9818 184.174 10.1559L184.096 11.1813H182.823V2H184.172ZM184.25 7.93638C184.25 9.20907 185.183 10.0519 186.326 10.0519C187.456 10.0519 188.374 9.23716 188.374 7.93638C188.374 6.61032 187.456 5.83491 186.326 5.83491C185.197 5.83491 184.25 6.68898 184.25 7.93638Z" fill="white"/>
<path d="M193.235 2V11.1785H191.884V2H193.235Z" fill="white"/>
<path d="M196.794 8.44678C196.912 9.43009 197.727 10.0763 198.91 10.0763C199.567 10.0763 200.393 9.82622 200.786 9.37952L201.666 10.2336C200.997 10.9697 199.879 11.3349 198.882 11.3349C196.755 11.3349 195.389 9.98355 195.389 7.90736C195.389 5.93793 196.769 4.5332 198.792 4.5332C200.879 4.5332 202.298 5.80589 202.048 8.44678H196.794ZM200.747 7.30333C200.668 6.27788 199.921 5.74127 198.831 5.74127C197.845 5.74127 197.033 6.28069 196.822 7.30333H200.747Z" fill="white"/>
<path d="M127.774 25.0085H122.796L121.928 26.9386H120.366L124.49 17.7461H126.092L130.216 26.9386H128.654L127.774 25.0085ZM125.291 19.2969L123.347 23.6712H127.235L125.291 19.2969Z" fill="white"/>
<path d="M137.217 19.8477L138.203 20.609L137.428 21.5165C137.967 22.1458 138.217 22.7245 138.217 23.5252C138.217 24.6687 137.652 25.6014 136.498 26.0453C137.824 26.492 138.206 27.3854 138.206 28.1608C138.206 29.9196 136.472 30.8017 134.739 30.8017C132.623 30.8017 131.272 29.7257 131.325 27.9248H132.68C132.64 28.9363 133.666 29.4757 134.742 29.4869C135.739 29.4869 136.804 29.0795 136.804 28.1608C136.804 27.2562 135.978 26.7561 134.77 26.7561C132.668 26.7561 131.264 25.548 131.264 23.5252C131.264 21.3591 133.011 20.2691 134.77 20.2691C135.309 20.2691 136.057 20.4011 136.517 20.7158L137.217 19.8477ZM132.621 23.5252C132.621 24.812 133.593 25.5087 134.761 25.5087C135.955 25.5087 136.863 24.694 136.863 23.5252C136.863 22.2526 135.877 21.5305 134.761 21.5305C133.657 21.5305 132.621 22.1739 132.621 23.5252Z" fill="white"/>
<path d="M141.631 20.4655L141.724 21.3196C142.196 20.4936 142.932 20.3223 143.628 20.3223C144.258 20.3223 144.862 20.5442 145.23 20.8729L144.612 22.0557C144.283 21.7944 143.968 21.6624 143.468 21.6624C142.535 21.6624 141.721 22.2411 141.721 23.4351V26.9413H140.369V20.4684H141.631V20.4655Z" fill="white"/>
<path d="M148.328 18.5623C148.328 19.6777 146.648 19.6777 146.648 18.5623C146.648 17.461 148.328 17.461 148.328 18.5623ZM146.806 20.4418V26.9429H148.157V20.4418H146.806Z" fill="white"/>
<path d="M156.13 26.0989C155.408 26.8097 154.608 27.1103 153.675 27.1103C151.809 27.1103 150.261 25.9416 150.261 23.708C150.261 21.4745 151.798 20.3086 153.675 20.3086C154.568 20.3086 155.316 20.5839 156.012 21.2666L155.147 22.1741C154.74 21.7807 154.2 21.5953 153.689 21.5953C152.52 21.5953 151.613 22.4213 151.613 23.7108C151.613 25.0762 152.56 25.7983 153.675 25.7983C154.226 25.7983 154.79 25.6269 155.212 25.1942L156.13 26.0989Z" fill="white"/>
<path d="M159.243 20.4668V23.9337C159.243 25.0378 159.872 25.7991 161.002 25.7991C162.067 25.7991 162.8 24.9198 162.8 23.8438V20.4696H164.154V26.9566H162.932L162.853 25.9986C162.224 26.7206 161.527 27.0494 160.62 27.0494C159.03 27.0494 157.889 25.9059 157.889 23.9505V20.4696H159.243V20.4668Z" fill="white"/>
<path d="M168.056 17.7617V26.9402H166.705V17.7617H168.056Z" fill="white"/>
<path d="M172.692 18.6016V20.4783H174.583V21.647H172.678V24.7346C172.678 25.4173 172.981 25.7966 173.611 25.7966C173.872 25.7966 174.175 25.7039 174.437 25.5746L174.83 26.7293C174.383 26.926 173.99 27.0187 173.529 27.0187C172.125 27.058 171.324 26.2573 171.324 24.7346V21.647H170.076V20.4783H171.324V18.7448L172.692 18.6016Z" fill="white"/>
<path d="M177.853 20.4668V23.9337C177.853 25.0378 178.482 25.7991 179.612 25.7991C180.676 25.7991 181.41 24.9198 181.41 23.8438V20.4696H182.761V26.9566H181.539L181.46 25.9986C180.831 26.7206 180.134 27.0494 179.227 27.0494C177.636 27.0494 176.496 25.9059 176.496 23.9505V20.4696H177.853V20.4668Z" fill="white"/>
<path d="M186.523 20.4655L186.616 21.3196C187.088 20.4936 187.824 20.3223 188.521 20.3223C189.15 20.3223 189.754 20.5442 190.122 20.8729L189.504 22.0557C189.176 21.7944 188.861 21.6624 188.361 21.6624C187.428 21.6624 186.613 22.2411 186.613 23.4351V26.9413H185.262V20.4684H186.523V20.4655Z" fill="white"/>
<path d="M192.527 24.2085C192.645 25.1946 193.459 25.838 194.639 25.838C195.297 25.838 196.123 25.5879 196.519 25.1412L197.398 25.9953C196.73 26.7314 195.611 27.0966 194.614 27.0966C192.487 27.0966 191.122 25.7453 191.122 23.6691C191.122 21.6997 192.501 20.2949 194.524 20.2949C196.612 20.2949 198.03 21.5676 197.78 24.2085H192.527ZM196.477 23.065C196.398 22.0396 195.651 21.503 194.561 21.503C193.574 21.503 192.763 22.0424 192.552 23.065H196.477Z" fill="white"/>
<path d="M121.406 42.7V33.5215H127.907V34.9515H122.878V37.7497H127.66V39.1151H122.878V42.7H121.406Z" fill="white"/>
<path d="M136.152 39.4699C136.152 41.3859 134.826 42.8328 132.789 42.8328C130.766 42.8328 129.454 41.3887 129.454 39.4699C129.454 37.565 130.78 36.0957 132.789 36.0957C134.787 36.0957 136.152 37.565 136.152 39.4699ZM130.808 39.4699C130.808 40.6245 131.556 41.5713 132.792 41.5713C134.039 41.5713 134.789 40.6274 134.789 39.4699C134.789 38.3264 133.975 37.3431 132.792 37.3431C131.556 37.3431 130.808 38.3292 130.808 39.4699Z" fill="white"/>
<path d="M139.49 36.2266V39.6934C139.49 40.7975 140.119 41.5589 141.248 41.5589C142.313 41.5589 143.046 40.6796 143.046 39.6035V36.2294H144.401V42.7164H143.178L143.1 41.7584C142.47 42.4804 141.774 42.8091 140.866 42.8091C139.276 42.8091 138.135 41.6657 138.135 39.7103V36.2294H139.49V36.2266Z" fill="white"/>
<path d="M151.81 42.7008V39.234C151.81 38.1186 151.18 37.3685 150.062 37.3685C148.986 37.3685 148.25 38.2479 148.25 39.3126V42.7008H146.899V36.2138H148.132L148.211 37.1578C148.829 36.461 149.551 36.1211 150.391 36.1211C151.967 36.1211 153.175 37.2364 153.175 39.2199V42.7008H151.81Z" fill="white"/>
<path d="M162.081 33.5223V42.7008H160.808L160.73 41.6754C160.218 42.5014 159.35 42.8301 158.485 42.8301C156.605 42.8301 155.175 41.5967 155.175 39.4559C155.175 37.2505 156.58 36.0818 158.46 36.0818C159.246 36.0818 160.311 36.4751 160.732 37.2364V33.5195H162.081V33.5223ZM156.524 39.4587C156.524 40.7595 157.431 41.5742 158.572 41.5742C159.701 41.5742 160.634 40.7342 160.634 39.4587C160.634 38.2113 159.701 37.3573 158.572 37.3573C157.431 37.3573 156.524 38.1327 156.524 39.4587Z" fill="white"/>
<path d="M169.776 36.2273H171.088C171.088 38.3821 171.088 40.5482 171.088 42.7003H169.801L169.737 41.6495C169.304 42.4755 168.307 42.8716 167.503 42.8716C165.613 42.8857 164.18 41.6636 164.18 39.4581C164.18 37.2921 165.663 36.084 167.529 36.084C168.447 36.084 169.327 36.5166 169.734 37.2527L169.776 36.2273ZM165.534 39.4581C165.534 40.7983 166.481 41.613 167.635 41.613C170.434 41.613 170.434 37.3201 167.635 37.3201C166.481 37.3173 165.534 38.1321 165.534 39.4581Z" fill="white"/>
<path d="M175.673 34.3613V36.238H177.564V37.4068H175.659V40.4916C175.659 41.1743 175.963 41.5563 176.592 41.5563C176.853 41.5563 177.157 41.4636 177.418 41.3344L177.811 42.4891C177.365 42.6857 176.971 42.7785 176.51 42.7785C175.106 42.8178 174.305 42.0171 174.305 40.4916V37.4068H173.058V36.238H174.305V34.5046L175.673 34.3613Z" fill="white"/>
<path d="M181.112 34.3222C181.112 35.4376 179.432 35.4376 179.432 34.3222C179.432 33.2181 181.112 33.2181 181.112 34.3222ZM179.589 36.1989V42.7H180.941V36.1989H179.589Z" fill="white"/>
<path d="M189.726 39.4699C189.726 41.3859 188.4 42.8328 186.363 42.8328C184.34 42.8328 183.028 41.3887 183.028 39.4699C183.028 37.565 184.354 36.0957 186.363 36.0957C188.36 36.0957 189.726 37.565 189.726 39.4699ZM184.382 39.4699C184.382 40.6245 185.13 41.5713 186.366 41.5713C187.613 41.5713 188.363 40.6274 188.363 39.4699C188.363 38.3264 187.548 37.3431 186.366 37.3431C185.13 37.3431 184.382 38.3292 184.382 39.4699Z" fill="white"/>
<path d="M196.727 42.7008V39.234C196.727 38.1186 196.098 37.3685 194.98 37.3685C193.904 37.3685 193.168 38.2479 193.168 39.3126V42.7008H191.816V36.2138H193.05L193.128 37.1578C193.746 36.461 194.468 36.1211 195.308 36.1211C196.884 36.1211 198.092 37.2364 198.092 39.2199V42.7008H196.727Z" fill="white"/>
<path d="M1.85415 28.082H0.876465V39.112C0.876465 39.112 4.9558 42.2726 14.7777 42.6154V41.5815C5.99249 40.4914 3.06222 31.3579 1.85415 28.082Z" fill="#46D39A"/>
<path d="M22.1328 20.4995L13.2859 14.639C6.62183 10.2731 7.71471 3.5529 12.4234 2.22965V1.25195C4.84344 1.7717 2.37393 5.56447 2.37393 5.56447C-2.39372 11.8268 0.651731 17.5693 8.80759 22.6825L17.6546 28.2536C23.9168 32.8499 23.0543 40.2023 18.4019 41.6379V42.6156C26.215 42.0425 28.5693 37.9631 28.5693 37.9631C32.8762 31.7009 29.7156 25.4976 22.1328 20.4995Z" fill="#46D39A"/>
<path d="M28.0492 13.6062H29.0269V3.95575C29.0269 3.95575 24.661 1.54242 16.0444 1.25586V2.28974C23.9137 3.26743 27.0154 10.794 28.0492 13.6062Z" fill="#46D39A"/>
<path d="M90.6557 34.2849V1.71484H78.9937V2.69254C81.5222 2.69254 82.3257 6.08074 82.3257 9.64313V34.2877C82.3257 38.1928 81.4632 41.1821 78.9937 41.1821V42.1598H95.5947V41.1821C93.128 41.1793 90.6557 40.7775 90.6557 34.2849Z" fill="#46D39A"/>
<path d="M94.218 21.132V22.3373C96.8027 22.6238 101.801 23.7167 102.548 28.1978H103.526V15.2715H102.548C101.801 19.8116 96.8027 20.8454 94.218 21.132Z" fill="#46D39A"/>
<path d="M94.218 1.71484V2.74872C98.2384 2.9201 108.636 4.24336 110.246 12.6296H111.224V1.71484H94.218Z" fill="#46D39A"/>
<path d="M68.8849 36.9886L53.4525 0.302734L49.5642 9.54304C48.9096 11.1023 48.9068 12.8582 49.5558 14.4174L54.0285 25.1889H49.6429C45.749 25.1889 42.2344 27.518 40.7117 31.1L39.0906 34.9293L35.708 42.8688H36.9807L38.9754 38.2164C39.4249 37.1488 40.175 36.2329 41.1303 35.5839L52.0478 28.1388L52.2782 28.4591L41.9956 36.2722C41.0797 36.9662 40.3689 37.8848 39.9278 38.9384H44.2319C48.1258 38.9384 51.6404 36.6094 53.1632 33.0273L56.4868 25.1889L55.9754 28.7569C55.8968 29.2963 55.967 29.8498 56.1777 30.3527L59.3215 37.9186C60.3863 40.4836 62.8867 42.1496 65.6568 42.1496H73.8043V41.1719C72.2815 41.068 70.8768 41.5849 68.8849 36.9886Z" fill="#46D39A"/>
</g>
<defs>
<clipPath id="clip0_2308_25414">
<rect width="202" height="42.7038" fill="white" transform="translate(0 0.283203)"/>
</clipPath>
</defs>
</svg>
