<svg width="100" height="100" viewBox="0 0 100 100" fill="none" xmlns="http://www.w3.org/2000/svg">
<path d="M68.75 50H46.875" stroke="#EBEAEA" stroke-width="2" stroke-miterlimit="10"/>
<path d="M68.75 53.125H46.875" stroke="#EBEAEA" stroke-width="2" stroke-miterlimit="10"/>
<path d="M30.4687 58.5938L24.6875 63.9063C23.5937 64.8438 23.125 66.0938 22.9687 67.5L22.0312 79.6875L31.25 75M47.6562 58.5938L53.4375 63.9063C54.5312 64.8438 55 66.0938 55.1562 67.5L56.0938 79.6875L46.875 75" fill="#39B295"/>
<path d="M46.875 75C48.125 72.1875 50.9375 61.875 50.9375 52.6562C50.9375 30.9375 39.0625 20.625 39.0625 20.625C39.0625 20.625 27.1875 30.7812 27.1875 52.5C27.1875 64.2187 30 72.5 31.25 75.1562H46.875V75Z" fill="#65D0B6"/>
<path d="M39.0625 48.4375C41.6513 48.4375 43.75 46.3388 43.75 43.75C43.75 41.1612 41.6513 39.0625 39.0625 39.0625C36.4737 39.0625 34.375 41.1612 34.375 43.75C34.375 46.3388 36.4737 48.4375 39.0625 48.4375Z" fill="white"/>
<path d="M40.625 79.6875H37.5L36.5625 62.1875C36.5625 60.9375 37.6563 59.6875 39.0625 59.6875C40.3125 59.6875 41.5625 60.7812 41.5625 62.1875L40.625 79.6875Z" fill="#39B295"/>
<path d="M12.5 85.9375H87.5" stroke="#EBEAEA" stroke-width="2" stroke-miterlimit="10"/>
<path d="M57.8125 79.6875H20.3125L18.75 84.375H59.375L57.8125 79.6875Z" fill="#EBEAEA"/>
<path d="M79.6875 15.625H67.1875V85.9375H79.6875V15.625Z" fill="#EBEAEA"/>
<path d="M76.5625 20.3125H70.3125V31.25H76.5625V20.3125Z" fill="white"/>
<path d="M76.5625 37.5H70.3125V48.4375H76.5625V37.5Z" fill="white"/>
<path d="M76.5625 54.6875H70.3125V65.625H76.5625V54.6875Z" fill="white"/>
<path d="M76.5625 71.875H70.3125V82.8125H76.5625V71.875Z" fill="white"/>
</svg>
