<svg width="100" height="100" viewBox="0 0 100 100" fill="none" xmlns="http://www.w3.org/2000/svg">
<path d="M50 89.0625C71.5736 89.0625 89.0625 71.5736 89.0625 50C89.0625 28.4264 71.5736 10.9375 50 10.9375C28.4264 10.9375 10.9375 28.4264 10.9375 50C10.9375 71.5736 28.4264 89.0625 50 89.0625Z" fill="#EBEAEA"/>
<path d="M50 41.7188L54.5313 39.0625L55.9375 44.0625L60.9375 45.4688L58.2812 50L60.9375 54.5313L55.9375 55.9375L54.5313 60.9375L50 58.2812L45.4688 60.9375L44.0625 55.9375L39.0625 54.5313L41.7188 50L39.0625 45.4688L44.0625 44.0625L45.4688 39.0625L50 41.7188Z" fill="#65D0B6"/>
<path d="M50 70.3125C61.2183 70.3125 70.3125 61.2183 70.3125 50C70.3125 38.7817 61.2183 29.6875 50 29.6875C38.7817 29.6875 29.6875 38.7817 29.6875 50C29.6875 61.2183 38.7817 70.3125 50 70.3125Z" stroke="white" stroke-width="2" stroke-miterlimit="10"/>
<path d="M50 79.6875C66.396 79.6875 79.6875 66.396 79.6875 50C79.6875 33.604 66.396 20.3125 50 20.3125C33.604 20.3125 20.3125 33.604 20.3125 50C20.3125 66.396 33.604 79.6875 50 79.6875Z" stroke="white" stroke-width="2" stroke-miterlimit="10"/>
<path d="M62.5 39.0625C65.0888 39.0625 67.1875 36.9638 67.1875 34.375C67.1875 31.7862 65.0888 29.6875 62.5 29.6875C59.9112 29.6875 57.8125 31.7862 57.8125 34.375C57.8125 36.9638 59.9112 39.0625 62.5 39.0625Z" fill="#39B295"/>
<path d="M64.0625 81.25C66.6513 81.25 68.75 79.1513 68.75 76.5625C68.75 73.9737 66.6513 71.875 64.0625 71.875C61.4737 71.875 59.375 73.9737 59.375 76.5625C59.375 79.1513 61.4737 81.25 64.0625 81.25Z" fill="#39B295"/>
<path d="M25 28.125C28.4518 28.125 31.25 25.3268 31.25 21.875C31.25 18.4232 28.4518 15.625 25 15.625C21.5482 15.625 18.75 18.4232 18.75 21.875C18.75 25.3268 21.5482 28.125 25 28.125Z" fill="#39B295"/>
</svg>
